<?xml version="1.0" encoding="UTF-8" standalone="no"?>
<!DOCTYPE svg PUBLIC "-//W3C//DTD SVG 1.1//EN" "http://www.w3.org/Graphics/SVG/1.1/DTD/svg11.dtd">
<svg width="100%" height="100%" viewBox="0 0 486 394" version="1.1" xmlns="http://www.w3.org/2000/svg" xmlns:xlink="http://www.w3.org/1999/xlink" xml:space="preserve" xmlns:serif="http://www.serif.com/" style="fill-rule:evenodd;clip-rule:evenodd;stroke-linejoin:round;stroke-miterlimit:2;">
    <g transform="matrix(1,0,0,1,7.82152e-14,0.0003)">
        <g transform="matrix(-1,0,0,1,485.834,-90.2663)">
            <g transform="matrix(1,0,0,1,-357.083,-117.984)">
                <path d="M677.542,336.347L597.8,336.347C594.265,336.358 590.917,334.735 588.735,331.954C586.513,329.146 585.709,325.464 586.558,321.986C593.907,291.204 593.907,259.12 586.558,228.339C585.709,224.861 586.513,221.179 588.734,218.372C590.916,215.59 594.265,213.967 597.8,213.978L677.542,213.978C683.204,213.994 688.071,218.145 688.981,223.733C694.229,257.818 694.229,292.507 688.981,326.592C688.071,332.18 683.204,336.331 677.542,336.347Z" style="fill:rgb(230,230,230);fill-rule:nonzero;"/>
            </g>
            <g transform="matrix(1,0,0,1,-357.083,-117.984)">
                <path d="M597.8,219.978C596.103,219.972 594.494,220.751 593.446,222.086C592.366,223.455 591.977,225.247 592.392,226.94C599.961,258.641 599.961,291.684 592.393,323.385C591.977,325.077 592.366,326.87 593.446,328.238C594.494,329.574 596.103,330.353 597.8,330.347L677.542,330.347C680.261,330.348 682.605,328.362 683.051,325.68C688.205,292.199 688.205,258.126 683.051,224.645C682.605,221.963 680.261,219.977 677.542,219.978L597.8,219.978Z" style="fill:white;fill-rule:nonzero;"/>
            </g>
            <g transform="matrix(1,0,0,1,-357.083,-117.984)">
                <path d="M660.141,248.829L618.296,248.829C615.006,248.825 612.299,246.119 612.296,242.829L612.296,240.484C612.299,237.194 615.006,234.488 618.296,234.485L660.141,234.485C663.431,234.488 666.137,237.194 666.14,240.484L666.14,242.829C666.137,246.119 663.431,248.825 660.141,248.829Z" style="fill:rgb(230,230,230);fill-rule:nonzero;"/>
            </g>
            <g transform="matrix(1,0,0,1,-357.083,-117.984)">
                <path d="M660.141,278.455L618.296,278.455C615.006,278.451 612.299,275.745 612.296,272.455L612.296,270.11C612.299,266.82 615.006,264.114 618.296,264.11L660.141,264.11C663.431,264.114 666.137,266.82 666.14,270.11L666.14,272.455C666.137,275.745 663.431,278.451 660.141,278.454L660.141,278.455Z" style="fill:rgb(230,230,230);fill-rule:nonzero;"/>
            </g>
            <g transform="matrix(1,0,0,1,-357.083,-117.984)">
                <path d="M660.141,308.08L618.296,308.08C615.006,308.077 612.299,305.371 612.296,302.081L612.296,299.736C612.299,296.446 615.006,293.74 618.296,293.736L660.141,293.736C663.431,293.74 666.137,296.446 666.14,299.736L666.14,302.081C666.137,305.371 663.431,308.077 660.141,308.08Z" style="fill:rgb(230,230,230);fill-rule:nonzero;"/>
            </g>
            <g transform="matrix(1,0,0,1,-357.083,-117.984)">
                <path d="M827.542,412.347L747.8,412.347C744.265,412.358 740.917,410.735 738.735,407.954C736.513,405.146 735.709,401.464 736.558,397.986C743.907,367.204 743.907,335.12 736.558,304.339C735.709,300.861 736.513,297.179 738.734,294.372C740.916,291.59 744.265,289.967 747.8,289.978L827.542,289.978C833.204,289.994 838.071,294.145 838.981,299.733C844.229,333.818 844.229,368.507 838.981,402.592C838.071,408.18 833.204,412.331 827.542,412.347Z" style="fill:rgb(230,230,230);fill-rule:nonzero;"/>
            </g>
            <g transform="matrix(1,0,0,1,-357.083,-117.984)">
                <path d="M747.8,295.978C746.103,295.972 744.494,296.751 743.446,298.086C742.366,299.455 741.977,301.247 742.392,302.94C749.961,334.641 749.961,367.684 742.393,399.385C741.977,401.077 742.366,402.87 743.446,404.238C744.494,405.574 746.103,406.353 747.8,406.347L827.542,406.347C830.261,406.348 832.605,404.362 833.051,401.68C838.205,368.199 838.205,334.126 833.051,300.645C832.605,297.963 830.261,295.977 827.542,295.978L747.8,295.978Z" style="fill:white;fill-rule:nonzero;"/>
            </g>
            <g transform="matrix(1,0,0,1,-357.083,-117.984)">
                <path d="M668.542,498.847L588.8,498.847C585.112,498.858 581.619,497.165 579.342,494.263C577.026,491.336 576.187,487.496 577.072,483.869C584.403,453.164 584.403,421.16 577.072,390.456C576.187,386.829 577.026,382.99 579.342,380.062C581.618,377.16 585.112,375.467 588.8,375.478L668.542,375.478C674.449,375.496 679.526,379.827 680.475,385.657C685.731,419.793 685.731,454.532 680.475,488.668C679.526,494.498 674.449,498.83 668.542,498.847Z" style="fill:rgb(242,242,242);fill-rule:nonzero;"/>
            </g>
            <g transform="matrix(1,0,0,1,-357.083,-117.984)">
                <path d="M810.141,339.829L768.296,339.829C765.006,339.825 762.299,337.119 762.296,333.829L762.296,331.484C762.299,328.194 765.006,325.488 768.296,325.485L810.141,325.485C813.431,325.488 816.137,328.194 816.14,331.484L816.14,333.829C816.137,337.119 813.431,339.825 810.141,339.829Z" style="fill:rgb(230,230,230);fill-rule:nonzero;"/>
            </g>
            <g transform="matrix(1,0,0,1,-357.083,-117.984)">
                <path d="M810.141,369.455L768.296,369.455C765.006,369.451 762.299,366.745 762.296,363.455L762.296,361.11C762.299,357.82 765.006,355.114 768.296,355.11L810.141,355.11C813.431,355.114 816.137,357.82 816.14,361.11L816.14,363.455C816.137,366.745 813.431,369.451 810.141,369.454L810.141,369.455Z" style="fill:rgb(230,230,230);fill-rule:nonzero;"/>
            </g>
            <g transform="matrix(1,0,0,1,6.10811e-06,90.2663)">
                <circle cx="271.811" cy="228.5" r="23" style="fill:white;"/>
            </g>
            <g transform="matrix(1,0,0,1,-357.083,-117.984)">
                <path d="M639.894,433.75L631.894,433.75L631.894,425.75C631.894,424.104 630.54,422.75 628.894,422.75C627.248,422.75 625.894,424.104 625.894,425.75L625.894,433.75L617.894,433.75C616.248,433.75 614.894,435.104 614.894,436.75C614.894,438.396 616.248,439.75 617.894,439.75L625.894,439.75L625.894,447.75C625.894,449.396 627.248,450.75 628.894,450.75C630.54,450.75 631.894,449.396 631.894,447.75L631.894,439.75L639.894,439.75C641.54,439.75 642.894,438.396 642.894,436.75C642.894,435.104 641.54,433.75 639.894,433.75Z" style="fill:rgb(230,230,230);fill-rule:nonzero;"/>
            </g>
            <g transform="matrix(1,0,0,1,-357.083,-117.984)">
                <path d="M657.894,225.25L615.894,225.25C613.427,225.247 611.397,223.218 611.394,220.75L611.394,212.75C611.397,210.282 613.427,208.253 615.894,208.25L657.894,208.25C660.362,208.253 662.391,210.282 662.394,212.75L662.394,220.75C662.391,223.218 660.362,225.247 657.894,225.25Z" style="fill:rgb(204,204,204);fill-rule:nonzero;"/>
            </g>
            <g transform="matrix(1,0,0,1,-357.083,-117.984)">
                <path d="M809.894,302.25L767.894,302.25C765.427,302.247 763.397,300.218 763.394,297.75L763.394,289.75C763.397,287.282 765.427,285.253 767.894,285.25L809.894,285.25C812.362,285.253 814.391,287.282 814.394,289.75L814.394,297.75C814.391,300.218 812.362,302.247 809.894,302.25Z" style="fill:rgb(204,204,204);fill-rule:nonzero;"/>
            </g>
            <path d="M88.596,471.061L100.856,471.061L104.689,423.773L88.594,423.773L88.596,471.061Z" style="fill:rgb(255,184,184);fill-rule:nonzero;"/>
            <g transform="matrix(1,0,0,1,-357.083,-208.25)">
                <path d="M442.552,675.308C442.552,675.308 466.697,675.307 466.698,675.307C475.138,675.307 482.084,682.253 482.084,690.693L482.084,691.194L442.553,691.195L442.552,675.308Z" style="fill:rgb(47,46,65);fill-rule:nonzero;"/>
            </g>
            <path d="M22.596,471.061L34.856,471.061L40.689,423.773L22.594,423.773L22.596,471.061Z" style="fill:rgb(255,184,184);fill-rule:nonzero;"/>
            <g transform="matrix(1,0,0,1,-357.083,-208.25)">
                <path d="M376.552,675.308C376.552,675.308 400.697,675.307 400.698,675.307C409.138,675.307 416.084,682.253 416.084,690.693L416.084,691.194L376.553,691.195L376.552,675.308Z" style="fill:rgb(47,46,65);fill-rule:nonzero;"/>
            </g>
            <g transform="matrix(1,0,0,1,-357.083,-208.25)">
                <path d="M381.854,664.373C380.604,664.372 379.399,663.901 378.479,663.054C377.482,662.145 376.898,660.866 376.864,659.517L371.947,483.304L441.758,500.756L463.298,565.374C466.075,573.686 467.278,582.444 466.843,591.198L464.169,653.834C464.043,656.484 461.827,658.595 459.174,658.593L447.465,658.593C444.978,658.583 442.854,656.727 442.51,654.264L434.141,585.122C433.41,579.728 431.523,574.556 428.61,569.958L412.14,543.882C411.957,543.592 411.638,543.416 411.295,543.416C410.793,543.416 410.365,543.794 410.303,544.292L397.378,659.38C397.093,661.78 395.104,663.646 392.691,663.777L382.139,664.364C382.044,664.369 381.949,664.373 381.854,664.373Z" style="fill:rgb(47,46,65);fill-rule:nonzero;"/>
            </g>
            <circle cx="73.058" cy="136.406" r="24.561" style="fill:rgb(255,184,184);"/>
            <g transform="matrix(1,0,0,1,-357.083,-208.25)">
                <path d="M441.424,507.922C441.001,507.922 440.58,507.868 440.171,507.763L440.17,507.763L370.906,490.003C368.349,489.349 366.729,486.776 367.243,484.188L383.15,398.497C385.16,388.451 391.992,380.013 401.4,375.958C410.57,371.899 421.186,372.678 429.665,378.033C430.635,378.638 431.612,379.297 432.568,379.994C440.365,385.745 445.026,394.835 445.147,404.523L446.412,502.852L446.412,502.916C446.412,505.655 444.163,507.912 441.424,507.922Z" style="fill:rgb(234,82,78);fill-rule:nonzero;"/>
            </g>
            <g transform="matrix(1,0,0,1,-357.083,-208.25)">
                <path d="M378.032,508.93C376.9,507.263 376.294,505.294 376.294,503.278C376.294,499.319 378.632,495.713 382.246,494.098L379.166,458.496L395.492,467.344L395.914,499.796C396.329,500.918 396.542,502.105 396.542,503.302C396.542,508.848 391.978,513.412 386.431,513.412C383.063,513.412 379.908,511.729 378.033,508.93L378.032,508.93Z" style="fill:rgb(255,184,184);fill-rule:nonzero;"/>
            </g>
            <g transform="matrix(1,0,0,1,-357.083,-208.25)">
                <path d="M383.865,489.389C383.404,489.389 382.946,489.331 382.499,489.216C380.547,488.718 379.018,487.185 378.527,485.23L370.504,453.346C367.701,442.213 369.038,430.433 374.266,420.211L391.074,387.33C393.271,379.191 401.709,374.248 409.882,376.311C413.861,377.316 417.276,379.875 419.357,383.412C421.482,386.999 422.078,391.294 421.011,395.325L397.084,448.831L397.368,480.866C397.383,483.176 395.947,485.261 393.784,486.071L385.776,489.044C385.165,489.272 384.518,489.389 383.865,489.389Z" style="fill:rgb(234,82,78);fill-rule:nonzero;"/>
            </g>
            <g transform="matrix(1,0,0,1,-357.083,-208.25)">
                <path d="M498.401,495.835C493.347,495.257 489.487,490.931 489.487,485.844C489.487,484.869 489.629,483.899 489.908,482.965L460.914,462.076L478.271,455.474L503.143,476.323C507.091,477.793 509.724,481.584 509.724,485.797C509.724,491.344 505.16,495.908 499.614,495.908C499.208,495.908 498.803,495.883 498.401,495.835Z" style="fill:rgb(255,184,184);fill-rule:nonzero;"/>
            </g>
            <g transform="matrix(1,0,0,1,-357.083,-208.25)">
                <path d="M483.223,480.581C482.368,480.58 481.525,480.381 480.76,479.999L451.361,465.282C441.095,460.143 433.039,451.445 428.701,440.816L414.743,406.626C410.008,399.652 411.766,390.031 418.661,385.182C422.026,382.816 426.205,381.899 430.251,382.638C434.345,383.374 437.978,385.721 440.332,389.15L465.277,442.19L489.743,462.873C491.504,464.368 492.147,466.817 491.35,468.984L488.38,476.993C487.992,478.043 487.292,478.949 486.373,479.589C485.45,480.234 484.35,480.581 483.223,480.581Z" style="fill:rgb(234,82,78);fill-rule:nonzero;"/>
            </g>
            <g transform="matrix(1,0,0,1,-357.083,-208.25)">
                <path d="M424.983,369.593C426.288,370.164 428.961,359.766 427.764,357.686C425.983,354.593 426.089,354.615 424.907,352.569C423.725,350.523 423.461,347.722 424.991,345.921C426.521,344.121 430.063,344.36 430.761,346.617C430.312,342.329 434.553,338.883 438.754,337.914C442.955,336.946 447.387,337.547 451.611,336.685C456.513,335.685 461.614,331.575 459.658,326.184C459.323,325.287 458.82,324.461 458.177,323.75C455.917,321.209 452.756,320.124 449.665,319.075C443.235,316.893 436.629,314.683 429.843,314.924C418.439,315.52 408.421,322.846 404.397,333.533C403.929,334.844 403.567,336.19 403.313,337.558C400.984,350.083 408.257,362.436 420.069,367.205L424.983,369.593Z" style="fill:rgb(47,46,65);fill-rule:nonzero;"/>
            </g>
            <path d="M38.9,273.343L39.457,240.414L56.9,205.343L42.9,241.343L38.9,273.343Z" style="fill-opacity:0.2;fill-rule:nonzero;"/>
            <g transform="matrix(1,0,0,1,-357.083,-208.25)">
                <path d="M554.16,564.232L480.522,533.637C477.253,532.29 474.784,529.507 473.836,526.101C472.862,522.656 473.532,518.947 475.65,516.061C494.247,490.455 506.557,460.827 511.581,429.581C512.132,426.044 514.287,422.953 517.415,421.212C520.497,419.481 524.213,419.267 527.473,420.633L601.111,451.229C606.334,453.416 609.236,459.117 607.932,464.627C599.7,498.116 586.391,530.15 568.467,559.613C565.482,564.424 559.395,566.39 554.16,564.232Z" style="fill:rgb(230,230,230);fill-rule:nonzero;"/>
            </g>
            <g transform="matrix(1,0,0,1,-357.083,-208.25)">
                <path d="M525.171,426.174C523.605,425.518 521.821,425.62 520.341,426.45C518.819,427.3 517.772,428.806 517.505,430.528C512.332,462.707 499.654,493.221 480.501,519.592C479.469,520.995 479.14,522.8 479.612,524.477L479.612,524.478C480.068,526.113 481.254,527.45 482.824,528.096L556.462,558.692C558.973,559.736 561.899,558.801 563.34,556.495C580.947,527.555 594.02,496.089 602.106,463.193C602.723,460.545 601.321,457.812 598.809,456.77L525.171,426.174Z" style="fill:white;fill-rule:nonzero;"/>
            </g>
            <g transform="matrix(1,0,0,1,-357.083,-208.25)">
                <path d="M564.38,494.281L525.738,478.226C522.701,476.961 521.24,473.423 522.499,470.384L523.399,468.218C524.665,465.182 528.202,463.721 531.242,464.98L569.884,481.035C572.921,482.301 574.381,485.838 573.122,488.878L572.223,491.043C570.957,494.08 567.42,495.54 564.38,494.281Z" style="fill:rgb(234,82,78);fill-rule:nonzero;"/>
            </g>
            <g transform="matrix(1,0,0,1,-357.083,-208.25)">
                <path d="M553.013,521.64L514.371,505.585C511.334,504.319 509.873,500.782 511.132,497.742L512.032,495.577C513.298,492.54 516.835,491.079 519.875,492.338L558.517,508.394C561.554,509.659 563.015,513.196 561.756,516.236L560.856,518.401C559.59,521.438 556.053,522.899 553.013,521.64Z" style="fill:rgb(234,82,78);fill-rule:nonzero;"/>
            </g>
            <g transform="matrix(1,0,0,1,-357.083,-208.25)">
                <path d="M579.864,455.832C579.286,455.832 578.713,455.719 578.177,455.501L539.239,439.759C536.953,438.831 535.832,436.189 536.754,433.9L539.753,426.483C540.678,424.195 543.323,423.073 545.611,423.998L584.549,439.741C586.836,440.669 587.957,443.311 587.035,445.6L584.036,453.017C583.348,454.712 581.694,455.828 579.864,455.832Z" style="fill:rgb(204,204,204);fill-rule:nonzero;"/>
            </g>
            <g transform="matrix(1,0,0,1,-357.083,-208.25)">
                <path d="M498.083,691.75L358.083,691.75C357.535,691.75 357.083,691.299 357.083,690.75C357.083,690.201 357.535,689.75 358.083,689.75L498.083,689.75C498.632,689.75 499.083,690.201 499.083,690.75C499.083,691.299 498.632,691.75 498.083,691.75Z" style="fill:rgb(204,204,204);fill-rule:nonzero;"/>
            </g>
        </g>
    </g>
</svg>
