<?xml version="1.0" encoding="UTF-8" standalone="no"?>
<!DOCTYPE svg PUBLIC "-//W3C//DTD SVG 1.1//EN" "http://www.w3.org/Graphics/SVG/1.1/DTD/svg11.dtd">
<svg width="100%" height="100%" viewBox="0 0 63 63" version="1.1" xmlns="http://www.w3.org/2000/svg" xmlns:xlink="http://www.w3.org/1999/xlink" xml:space="preserve" xmlns:serif="http://www.serif.com/" style="fill-rule:evenodd;clip-rule:evenodd;stroke-linejoin:round;stroke-miterlimit:2;">
    <g transform="matrix(1,0,0,1,-0.5,-0.499227)">
        <path d="M62.324,34.054L24.324,21.054C23.965,20.932 23.568,21.023 23.299,21.287C23.029,21.554 22.932,21.949 23.049,22.309L36.049,62.309C36.178,62.705 36.541,62.981 36.958,62.998L37,62.998C37.4,62.998 37.765,62.758 37.921,62.386L45.772,43.74L62.425,35.904C62.794,35.73 63.02,35.35 62.998,34.944C62.976,34.537 62.708,34.184 62.323,34.052L62.324,34.054ZM37.121,59.137L26.238,25.652L43.817,43.231L37.12,59.136L37.121,59.137ZM45.21,41.796L27.756,24.342L59.34,35.147L45.21,41.796Z" style="fill:white;fill-rule:nonzero;"/>
        <path d="M23.949,3C24.266,3.002 24.569,3.005 24.875,3.018L24.959,1.02C24.641,1.006 24.322,1 24.003,1C23.632,0.996 23.262,1.008 22.896,1.025L22.991,3.023C23.308,3.007 23.627,3 23.949,3Z" style="fill:white;fill-rule:nonzero;stroke:white;stroke-width:1px;"/>
        <path d="M29.042,1.556C28.373,1.406 27.689,1.285 27.011,1.197L26.751,3.179C27.37,3.26 27.994,3.37 28.605,3.507L29.042,1.556Z" style="fill:white;fill-rule:nonzero;stroke:white;stroke-width:1px;"/>
        <path d="M32.97,2.816C32.343,2.548 31.692,2.306 31.034,2.095L30.423,3.999C31.022,4.191 31.616,4.412 32.187,4.655L32.97,2.815L32.97,2.816Z" style="fill:white;fill-rule:nonzero;stroke:white;stroke-width:1px;"/>
        <path d="M13.997,5.531L13.043,3.773C12.442,4.099 11.848,4.457 11.276,4.836L12.383,6.502C12.904,6.155 13.447,5.828 13.996,5.53L13.997,5.531Z" style="fill:white;fill-rule:nonzero;stroke:white;stroke-width:1px;"/>
        <path d="M17.45,4.041L16.826,2.141C16.174,2.355 15.525,2.601 14.897,2.872L15.69,4.708C16.263,4.461 16.855,4.236 17.45,4.041Z" style="fill:white;fill-rule:nonzero;stroke:white;stroke-width:1px;"/>
        <path d="M21.116,3.194L20.842,1.214C20.162,1.308 19.48,1.433 18.815,1.586L19.263,3.535C19.871,3.395 20.494,3.28 21.117,3.194L21.116,3.194Z" style="fill:white;fill-rule:nonzero;stroke:white;stroke-width:1px;"/>
        <path d="M40.946,11.593L42.557,10.409C42.151,9.855 41.716,9.315 41.265,8.804L39.764,10.126C40.177,10.594 40.574,11.087 40.946,11.593Z" style="fill:white;fill-rule:nonzero;stroke:white;stroke-width:1px;"/>
        <path d="M45,24C45,24.628 44.972,25.262 44.917,25.883L46.909,26.059C46.969,25.38 47,24.687 47,23.984L46.376,23.937L45,24Z" style="fill:white;fill-rule:nonzero;stroke:white;stroke-width:1px;"/>
        <path d="M44.226,18.329L46.152,17.79C45.968,17.131 45.751,16.472 45.507,15.831L43.637,16.54C43.859,17.126 44.057,17.728 44.226,18.329Z" style="fill:white;fill-rule:nonzero;stroke:white;stroke-width:1px;"/>
        <path d="M44.909,22.028L46.9,21.844C46.838,21.162 46.742,20.475 46.617,19.8L44.65,20.163C44.764,20.779 44.851,21.406 44.908,22.027L44.909,22.028Z" style="fill:white;fill-rule:nonzero;stroke:white;stroke-width:1px;"/>
        <path d="M39.834,7.319C39.337,6.846 38.813,6.391 38.276,5.966L37.034,7.532C37.524,7.922 38.003,8.337 38.457,8.767L39.834,7.318L39.834,7.319Z" style="fill:white;fill-rule:nonzero;stroke:white;stroke-width:1px;"/>
        <path d="M36.604,4.759C36.034,4.385 35.437,4.03 34.831,3.705L33.887,5.469C34.442,5.766 34.987,6.089 35.508,6.431L36.605,4.759L36.604,4.759Z" style="fill:white;fill-rule:nonzero;stroke:white;stroke-width:1px;"/>
        <path d="M10.862,7.617L9.612,6.056C9.078,6.484 8.556,6.942 8.062,7.417L9.449,8.858C9.9,8.424 10.376,8.006 10.863,7.616L10.862,7.617Z" style="fill:white;fill-rule:nonzero;stroke:white;stroke-width:1px;"/>
        <path d="M42.89,14.813L44.688,13.936C44.388,13.321 44.056,12.711 43.702,12.125L41.99,13.16C42.313,13.694 42.616,14.251 42.89,14.812L42.89,14.813Z" style="fill:white;fill-rule:nonzero;stroke:white;stroke-width:1px;"/>
        <path d="M3.325,20.294L1.356,19.944C1.236,20.618 1.145,21.305 1.086,21.989L3.078,22.161C3.132,21.538 3.215,20.909 3.324,20.294L3.325,20.294Z" style="fill:white;fill-rule:nonzero;stroke:white;stroke-width:1px;"/>
        <path d="M16.918,45.889C17.565,46.099 18.235,46.283 18.91,46.435L19.349,44.484C18.735,44.345 18.125,44.178 17.535,43.987L16.918,45.889Z" style="fill:white;fill-rule:nonzero;stroke:white;stroke-width:1px;"/>
        <path d="M6.703,39.161C7.157,39.677 7.637,40.178 8.13,40.648L9.511,39.201C9.059,38.77 8.62,38.313 8.206,37.841L6.703,39.161Z" style="fill:white;fill-rule:nonzero;stroke:white;stroke-width:1px;"/>
        <path d="M9.686,42.004C10.224,42.433 10.786,42.84 11.356,43.215L12.456,41.545C11.936,41.202 11.423,40.83 10.932,40.44L9.687,42.004L9.686,42.004Z" style="fill:white;fill-rule:nonzero;stroke:white;stroke-width:1px;"/>
        <path d="M13.124,44.27C13.723,44.593 14.349,44.895 14.986,45.166L15.77,43.326C15.189,43.079 14.619,42.804 14.075,42.51L13.124,44.27Z" style="fill:white;fill-rule:nonzero;stroke:white;stroke-width:1px;"/>
        <path d="M20.939,46.798C21.612,46.889 22.304,46.949 22.995,46.979L23.08,44.981C22.45,44.954 21.819,44.899 21.206,44.816L20.939,46.798Z" style="fill:white;fill-rule:nonzero;stroke:white;stroke-width:1px;"/>
        <path d="M24.965,44.978L25.056,46.976C25.739,46.945 26.429,46.882 27.109,46.791L26.842,44.809C26.22,44.893 25.589,44.95 24.965,44.978Z" style="fill:white;fill-rule:nonzero;stroke:white;stroke-width:1px;"/>
        <path d="M3,24.044L1,24.048C1.001,24.736 1.034,25.428 1.095,26.108L3.087,25.926C3.03,25.306 3.001,24.672 3,24.044Z" style="fill:white;fill-rule:nonzero;stroke:white;stroke-width:1px;"/>
        <path d="M4.316,16.665L2.441,15.968C2.2,16.616 1.988,17.277 1.809,17.933L3.739,18.458C3.902,17.86 4.096,17.257 4.316,16.665Z" style="fill:white;fill-rule:nonzero;stroke:white;stroke-width:1px;"/>
        <path d="M8.15,10.225L6.641,8.913C6.192,9.429 5.76,9.973 5.358,10.527L6.978,11.701C7.345,11.193 7.74,10.697 8.15,10.225Z" style="fill:white;fill-rule:nonzero;stroke:white;stroke-width:1px;"/>
        <path d="M5.942,13.274L4.224,12.251C3.872,12.84 3.544,13.452 3.248,14.068L5.052,14.933C5.322,14.371 5.621,13.812 5.942,13.274Z" style="fill:white;fill-rule:nonzero;stroke:white;stroke-width:1px;"/>
        <path d="M3.341,27.792L1.373,28.149C1.496,28.824 1.651,29.502 1.834,30.162L3.761,29.627C3.594,29.024 3.452,28.407 3.341,27.792Z" style="fill:white;fill-rule:nonzero;stroke:white;stroke-width:1px;"/>
        <path d="M5.987,34.802L4.273,35.833C4.627,36.422 5.011,37 5.414,37.551L7.029,36.371C6.661,35.868 6.311,35.34 5.987,34.802Z" style="fill:white;fill-rule:nonzero;stroke:white;stroke-width:1px;"/>
        <path d="M4.347,31.416L2.476,32.123C2.718,32.763 2.992,33.4 3.291,34.018L5.091,33.147C4.818,32.584 4.568,32.001 4.347,31.417L4.347,31.416Z" style="fill:white;fill-rule:nonzero;stroke:white;stroke-width:1px;"/>
        <g transform="matrix(1.70361,0,0,1.70361,-22.5383,-20.9306)">
            <circle cx="27.318" cy="26.4" r="12.889" style="fill:none;stroke:black;stroke-width:1.17px;stroke-linecap:round;stroke-miterlimit:1.5;"/>
        </g>
    </g>
</svg>
