<?xml version="1.0" encoding="UTF-8" standalone="no"?>
<!DOCTYPE svg PUBLIC "-//W3C//DTD SVG 1.1//EN" "http://www.w3.org/Graphics/SVG/1.1/DTD/svg11.dtd">
<svg width="100%" height="100%" viewBox="0 0 62 64" version="1.1" xmlns="http://www.w3.org/2000/svg" xmlns:xlink="http://www.w3.org/1999/xlink" xml:space="preserve" xmlns:serif="http://www.serif.com/" style="fill-rule:evenodd;clip-rule:evenodd;stroke-linejoin:round;stroke-miterlimit:2;">
    <g transform="matrix(1,0,0,1,-2.25,-1.29232)">
        <path d="M63.7,23.36L56.46,4.19C55.59,1.88 53,0.71 50.69,1.58L31.52,8.82C31.34,8.89 31.19,9.02 31.11,9.2C31.03,9.37 31.02,9.58 31.09,9.75L34.49,18.76C34.6,19.05 34.87,19.28 35.2,19.23C35.51,19.22 35.78,19.01 35.87,18.71C36.18,17.66 36.94,16.83 37.96,16.44C38.83,16.11 39.78,16.14 40.63,16.54C41.48,16.94 42.11,17.64 42.42,18.52C43.01,20.21 42.14,22.15 40.48,22.83C39.45,23.26 38.26,23.15 37.32,22.54C37.06,22.37 36.72,22.39 36.47,22.59C36.23,22.79 36.14,23.12 36.25,23.41L39.65,32.42C39.79,32.8 40.21,32.99 40.59,32.84L48,30.04C47.84,30.9 47.92,31.79 48.24,32.64C48.7,33.86 49.61,34.83 50.8,35.37C51.44,35.66 52.13,35.81 52.81,35.81C53.39,35.81 53.98,35.7 54.54,35.49C55.76,35.03 56.73,34.12 57.27,32.93C57.81,31.74 57.85,30.41 57.39,29.19C57.07,28.35 56.54,27.63 55.85,27.09L63.26,24.29C63.65,24.15 63.84,23.73 63.7,23.36ZM53.87,26.29C53.58,26.4 53.39,26.68 53.4,26.98C53.41,27.29 53.61,27.56 53.9,27.65C54.89,27.98 55.67,28.72 56.04,29.7C56.36,30.56 56.33,31.49 55.95,32.33C55.57,33.17 54.89,33.81 54.04,34.13C53.18,34.46 52.24,34.42 51.4,34.05C50.56,33.67 49.92,32.99 49.6,32.13C49.23,31.16 49.33,30.08 49.86,29.18C50.02,28.92 49.99,28.58 49.79,28.35C49.65,28.18 49.44,28.09 49.24,28.09C49.15,28.09 49.07,28.11 48.98,28.14L40.76,31.24L38.2,24.45C39.14,24.64 40.13,24.56 41.04,24.18C43.4,23.21 44.63,20.46 43.79,18.05C43.35,16.79 42.45,15.79 41.24,15.23C40.04,14.67 38.69,14.61 37.44,15.09C36.57,15.42 35.82,15.99 35.27,16.72L32.71,9.93L51.2,2.94C52.76,2.35 54.51,3.14 55.1,4.7L62.08,23.19L53.87,26.29Z" style="fill-rule:nonzero;"/>
        <path d="M51.47,39.01L41.97,39.01C41.66,39.01 41.39,39.2 41.29,39.49C41.19,39.78 41.28,40.1 41.52,40.3C42.33,40.96 42.8,41.93 42.8,42.97C42.8,44.87 41.26,46.41 39.36,46.41C37.46,46.41 35.91,44.87 35.91,42.97C35.91,41.93 36.38,40.96 37.19,40.3C37.43,40.11 37.52,39.78 37.42,39.49C37.32,39.2 37.04,39.01 36.74,39.01L27.96,39.01L27.96,31.75C28.73,32.24 29.64,32.51 30.56,32.51C31.89,32.51 33.14,31.98 34.07,31.03C35,30.07 35.49,28.81 35.45,27.48C35.37,24.93 33.24,22.8 30.69,22.73C29.72,22.7 28.76,22.97 27.95,23.49L27.95,15.5C27.95,15.1 27.62,14.77 27.22,14.77L6.73,14.77C4.26,14.77 2.25,16.78 2.25,19.25L2.25,60.22C2.25,62.69 4.26,64.7 6.73,64.7L47.71,64.7C50.18,64.7 52.19,62.69 52.19,60.22L52.19,39.74C52.2,39.34 51.87,39.01 51.47,39.01ZM6.73,16.23L26.5,16.23L26.5,25.14C26.5,25.45 26.7,25.73 27,25.83C27.3,25.93 27.62,25.82 27.81,25.57C28.47,24.67 29.58,24.15 30.65,24.18C32.44,24.23 33.94,25.72 33.99,27.52C34.02,28.46 33.67,29.35 33.02,30.02C32.37,30.69 31.49,31.06 30.55,31.06C29.48,31.06 28.45,30.54 27.8,29.67C27.61,29.42 27.29,29.32 26.99,29.42C26.69,29.52 26.49,29.8 26.49,30.11L26.49,39.02L19.83,39.02C20.25,38.32 20.49,37.52 20.52,36.69C20.57,35.4 20.1,34.15 19.19,33.18C18.28,32.21 17.07,31.66 15.77,31.62C14.43,31.59 13.17,32.08 12.22,33.01C11.27,33.94 10.74,35.18 10.74,36.51C10.74,37.41 10.98,38.28 11.44,39.03L3.71,39.03L3.71,19.25C3.71,17.59 5.07,16.23 6.73,16.23ZM3.71,60.23L3.71,40.47L13.04,40.47C13.35,40.47 13.62,40.28 13.73,39.98C13.83,39.69 13.74,39.37 13.5,39.17C12.68,38.51 12.22,37.54 12.22,36.49C12.22,35.56 12.59,34.69 13.26,34.04C13.94,33.38 14.83,33.03 15.76,33.07C16.67,33.1 17.52,33.49 18.16,34.17C18.8,34.85 19.13,35.73 19.1,36.63C19.06,37.63 18.6,38.55 17.82,39.18C17.58,39.37 17.49,39.7 17.59,39.99C17.69,40.28 17.97,40.48 18.27,40.48L26.51,40.48L26.51,47.68C25.76,47.23 24.89,46.98 24,46.98C22.66,46.98 21.41,47.51 20.48,48.47C19.55,49.43 19.07,50.68 19.11,52.01C19.15,53.3 19.7,54.52 20.67,55.42C21.64,56.33 22.89,56.82 24.19,56.75C25.02,56.72 25.82,56.48 26.51,56.05L26.51,63.25L6.73,63.25C5.07,63.25 3.71,61.9 3.71,60.23ZM50.75,60.23C50.75,61.9 49.39,63.26 47.72,63.26L27.96,63.26L27.96,54.47C27.96,54.16 27.77,53.89 27.47,53.79C27.18,53.69 26.86,53.78 26.66,54.02C26.03,54.8 25.11,55.27 24.12,55.31C23.21,55.33 22.34,55.01 21.65,54.37C20.97,53.73 20.58,52.88 20.55,51.98C20.52,51.05 20.86,50.16 21.51,49.49C22.16,48.81 23.04,48.44 23.99,48.44C25.02,48.44 26,48.91 26.66,49.72C26.86,49.96 27.18,50.04 27.47,49.94C27.76,49.84 27.95,49.56 27.95,49.26L27.95,40.48L35.15,40.48C34.7,41.23 34.45,42.09 34.45,42.99C34.45,45.69 36.65,47.88 39.35,47.88C42.05,47.88 44.24,45.69 44.24,42.99C44.24,42.09 44,41.23 43.55,40.48L50.75,40.48L50.75,60.23Z" style="fill-rule:nonzero;"/>
    </g>
</svg>
