<?xml version="1.0" encoding="UTF-8" standalone="no"?>
<!DOCTYPE svg PUBLIC "-//W3C//DTD SVG 1.1//EN" "http://www.w3.org/Graphics/SVG/1.1/DTD/svg11.dtd">
<svg width="100%" height="100%" viewBox="0 0 91 90" version="1.1" xmlns="http://www.w3.org/2000/svg" xmlns:xlink="http://www.w3.org/1999/xlink" xml:space="preserve" xmlns:serif="http://www.serif.com/" style="fill-rule:evenodd;clip-rule:evenodd;stroke-linejoin:round;stroke-miterlimit:2;">
    <g transform="matrix(1,0,0,1,-2.4995,-2.5)">
        <path d="M92.5,63.3L92.5,89.688C92.5,89.688 92.5,89.689 92.5,89.689C92.5,91.231 91.231,92.5 89.689,92.5C89.689,92.5 89.688,92.5 89.688,92.5L63.3,92.5C61.777,92.471 60.54,91.211 60.54,89.688C60.54,88.164 61.777,86.904 63.3,86.875L86.875,86.875L86.875,63.3C86.875,63.282 86.875,63.265 86.875,63.247C86.875,61.704 88.144,60.434 89.688,60.434C91.231,60.434 92.501,61.704 92.501,63.247C92.501,63.265 92.5,63.282 92.5,63.3ZM2.5,89.688L2.5,63.3C2.5,63.282 2.5,63.265 2.5,63.247C2.5,61.704 3.769,60.434 5.312,60.434C6.856,60.434 8.126,61.704 8.126,63.247C8.126,63.265 8.125,63.282 8.125,63.3L8.125,86.875L31.7,86.875C33.223,86.904 34.46,88.164 34.46,89.688C34.46,91.211 33.223,92.471 31.7,92.5L5.312,92.5C5.312,92.5 5.311,92.5 5.311,92.5C3.769,92.5 2.5,91.231 2.5,89.689C2.5,89.689 2.5,89.688 2.5,89.688ZM2.5,31.7L2.5,5.312C2.5,3.769 3.769,2.5 5.312,2.5L31.7,2.5C33.223,2.529 34.46,3.789 34.46,5.312C34.46,6.836 33.223,8.096 31.7,8.125L8.125,8.125L8.125,31.7C8.096,33.223 6.836,34.46 5.313,34.46C3.789,34.46 2.529,33.223 2.5,31.7ZM92.5,5.312L92.5,31.7C92.471,33.223 91.211,34.46 89.688,34.46C88.164,34.46 86.904,33.223 86.875,31.7L86.875,8.125L63.3,8.125C61.777,8.096 60.54,6.836 60.54,5.313C60.54,3.789 61.777,2.529 63.3,2.5L89.688,2.5C91.231,2.5 92.5,3.769 92.5,5.312ZM47.5,38.76C47.5,38.76 47.499,38.76 47.499,38.76C42.704,38.76 38.758,42.706 38.758,47.501C38.758,52.296 42.704,56.242 47.499,56.242C52.294,56.242 56.24,52.296 56.24,47.501C56.24,47.501 56.24,47.5 56.24,47.5C56.235,42.707 52.293,38.765 47.5,38.759L47.5,38.76ZM65.086,59.8L84.442,47.5L67.085,36.474C65.428,35.431 63.677,34.546 61.854,33.831C69.308,41.639 69.072,54.179 61.328,61.7C62.637,61.184 63.895,60.548 65.086,59.8ZM10.557,47.5L27.914,58.527C29.572,59.568 31.323,60.453 33.145,61.169C25.694,53.36 25.931,40.822 33.672,33.3C32.364,33.817 31.106,34.453 29.914,35.2L10.557,47.5ZM47.5,61.707C47.5,61.707 47.501,61.707 47.501,61.707C55.295,61.707 61.708,55.294 61.708,47.5C61.708,39.706 55.295,33.293 47.501,33.293C39.707,33.293 33.294,39.706 33.294,47.5C33.303,55.29 39.71,61.697 47.5,61.707ZM91.2,45.126L70.1,31.726C63.477,27.722 55.912,25.535 48.174,25.388C40.004,25.129 32.446,26.93 26.896,30.456L3.805,45.126C2.993,45.641 2.5,46.539 2.5,47.5C2.5,48.461 2.993,49.359 3.805,49.874L24.9,63.274C31.523,67.278 39.088,69.465 46.826,69.611C47.341,69.627 47.853,69.637 48.364,69.637C55.941,69.637 62.904,67.848 68.104,64.543L91.2,49.874C92.011,49.358 92.504,48.461 92.504,47.5C92.504,46.539 92.011,45.642 91.2,45.126Z"/>
    </g>
</svg>
