<?xml version="1.0" encoding="UTF-8" standalone="no"?>
<!DOCTYPE svg PUBLIC "-//W3C//DTD SVG 1.1//EN" "http://www.w3.org/Graphics/SVG/1.1/DTD/svg11.dtd">
<svg width="100%" height="100%" viewBox="0 0 59 80" version="1.1" xmlns="http://www.w3.org/2000/svg" xmlns:xlink="http://www.w3.org/1999/xlink" xml:space="preserve" xmlns:serif="http://www.serif.com/" style="fill-rule:evenodd;clip-rule:evenodd;stroke-linejoin:round;stroke-miterlimit:2;">
    <g transform="matrix(1,0,0,1,-20.9033,-10.1014)">
        <path d="M48.3,12.62L46.69,12.33C46.43,12.28 46.16,12.33 45.94,12.49C45.72,12.64 45.57,12.87 45.52,13.13L43.82,22.53L35.34,20.98L37.04,11.57C37.14,11.03 36.78,10.51 36.24,10.41L34.63,10.12C34.37,10.07 34.1,10.12 33.88,10.28C33.66,10.43 33.51,10.66 33.46,10.92L20.92,80.19C20.82,80.73 21.18,81.25 21.72,81.35L23.33,81.64C23.59,81.69 23.86,81.63 24.08,81.48C24.3,81.33 24.45,81.1 24.5,80.84L26.41,70.28L34.89,71.83L32.98,82.39C32.88,82.93 33.24,83.45 33.78,83.55L35.39,83.84C35.45,83.85 35.51,83.86 35.57,83.86C35.77,83.86 35.97,83.8 36.14,83.68C36.36,83.53 36.51,83.3 36.56,83.04L49.1,13.78C49.2,13.24 48.84,12.72 48.3,12.62ZM35.36,69.29L26.88,67.74L34.89,23.53L43.37,25.08L35.36,69.29Z" style="fill-rule:nonzero;"/>
        <path d="M78.26,18.65L76.65,18.36C76.39,18.31 76.12,18.37 75.9,18.52C75.68,18.67 75.53,18.9 75.48,19.16L74.72,23.37L66.24,21.82L67,17.61C67.1,17.07 66.74,16.55 66.2,16.45L64.59,16.16C64.33,16.11 64.06,16.16 63.84,16.32C63.62,16.47 63.47,16.7 63.42,16.96L50.88,86.23C50.78,86.77 51.14,87.29 51.68,87.39L53.29,87.68C53.55,87.73 53.82,87.67 54.04,87.52C54.26,87.37 54.41,87.14 54.46,86.88L55.33,82.09L63.81,83.64L62.94,88.43C62.84,88.97 63.2,89.49 63.74,89.59L65.35,89.88C65.41,89.89 65.47,89.9 65.53,89.9C65.73,89.9 65.93,89.84 66.1,89.72C66.32,89.57 66.47,89.34 66.52,89.08L79.06,19.82C79.16,19.28 78.8,18.76 78.26,18.66L78.26,18.65ZM64.27,81.09L55.79,79.54L57.42,70.54L65.9,72.09L64.27,81.09ZM67.23,64.76L66.36,69.55L57.88,68L59.51,59L67.99,60.55L67.23,64.76ZM68.45,58L59.97,56.45L61.6,47.45L70.08,49L68.45,58ZM70.54,46.46L62.06,44.91L63.69,35.91L72.17,37.46L70.54,46.46ZM72.63,34.92L64.15,33.37L65.78,24.37L74.26,25.92L72.63,34.92Z" style="fill-rule:nonzero;"/>
    </g>
</svg>
