<?xml version="1.0" encoding="UTF-8" standalone="no"?>
<!DOCTYPE svg PUBLIC "-//W3C//DTD SVG 1.1//EN" "http://www.w3.org/Graphics/SVG/1.1/DTD/svg11.dtd">
<svg width="100%" height="100%" viewBox="0 0 91 90" version="1.1" xmlns="http://www.w3.org/2000/svg" xmlns:xlink="http://www.w3.org/1999/xlink" xml:space="preserve" xmlns:serif="http://www.serif.com/" style="fill-rule:evenodd;clip-rule:evenodd;stroke-linejoin:round;stroke-miterlimit:2;">
    <g transform="matrix(1,0,0,1,-5.00007,-5.00076)">
        <path d="M82.675,93.593C82.675,94.37 82.045,95 81.268,95C80.491,95 79.861,94.371 79.861,93.593L79.861,87.691C79.861,87.506 79.897,87.33 79.961,87.169L84.282,73.26C84.571,72.328 84.735,71.361 84.217,70.528L80.275,64.211C79.516,65.445 78.649,66.606 77.689,67.679L77.689,75.399C77.689,76.175 77.059,76.805 76.282,76.805C75.505,76.805 74.876,76.175 74.876,75.399L74.876,63.051C74.876,61.182 71.788,61.206 71.788,63.051L71.788,69.549C71.788,69.779 71.733,69.994 71.636,70.185C71.245,71.008 70.828,72.094 70.441,72.892L68.218,77.933C67.23,80.173 67.352,82.49 68.574,84.609L70.058,87.18C70.184,87.4 70.244,87.64 70.244,87.877L70.244,93.592C70.244,94.366 69.617,94.992 68.844,94.992C68.071,94.992 67.443,94.365 67.443,93.592L67.443,88.251L66.147,86.004C64.479,83.112 64.301,79.854 65.648,76.801L66.567,74.719C64.384,75.364 62.096,75.694 59.78,75.694C59.003,75.694 58.373,75.065 58.373,74.287L58.373,68.71C58.373,67.934 59.003,67.303 59.78,67.303C63.482,67.303 65.346,62.807 62.728,60.19C61.973,59.435 60.931,58.969 59.78,58.969C59.003,58.969 58.373,58.34 58.373,57.562L58.373,51.552C58.373,50.742 59.019,50.112 59.904,50.152L64.726,50.155C65.358,47.605 67.653,45.765 70.347,45.762C73.015,45.762 75.344,47.572 75.988,50.162L82.44,50.166C83.19,50.166 83.803,50.756 83.84,51.497C83.986,54.577 83.038,58.513 81.792,61.33L86.604,69.043C87.594,70.629 87.496,72.379 86.966,74.083L82.678,87.889L82.678,93.592L82.675,93.593ZM74.648,20.725L63.952,26.9C62.326,27.838 60.802,25.139 62.397,24.219L68.025,20.97C68.203,20.867 68.35,20.732 68.464,20.574L73.368,13.753C74.797,11.764 76.878,10.689 79.326,10.676L82.44,10.659C82.709,10.659 82.959,10.581 83.173,10.449L88.082,7.616C88.753,7.23 88.985,6.374 88.599,5.704C88.214,5.033 87.357,4.802 86.688,5.187L82.058,7.859L79.316,7.875C75.956,7.893 73.054,9.389 71.095,12.116L66.364,18.695L63.695,20.236C55.401,14.8 44.651,14.778 36.336,20.182L33.765,18.698L29.075,12.13C27.107,9.373 24.17,7.86 20.781,7.86L18.062,7.858L13.436,5.187C12.765,4.802 11.909,5.033 11.524,5.704C11.139,6.375 11.37,7.23 12.04,7.616L16.951,10.45C17.165,10.583 17.417,10.659 17.688,10.659L20.781,10.659C23.251,10.661 25.354,11.743 26.79,13.755L31.656,20.567C31.769,20.727 31.918,20.866 32.099,20.97L37.727,24.219C39.321,25.139 37.797,27.838 36.171,26.9L25.475,20.725C24.804,20.34 23.949,20.571 23.564,21.242C23.179,21.913 23.409,22.768 24.08,23.154L29.736,26.418C28.656,27.891 27.733,29.487 26.993,31.18L25.032,31.246C24.063,31.279 23.279,30.641 22.631,29.939L12.703,19.201C12.602,19.082 12.478,18.979 12.336,18.897L7.223,15.945C6.552,15.56 5.696,15.791 5.311,16.462C4.926,17.133 5.157,17.988 5.828,18.373L10.757,21.219L20.577,31.84C21.155,32.466 21.783,33.014 22.494,33.407C23.767,34.11 24.592,34.066 25.952,34.02C24.551,38.696 24.551,43.726 25.952,48.403L24.997,48.371C23.118,48.306 21.671,49.261 20.452,50.578L10.632,61.201L5.703,64.045C5.032,64.431 4.801,65.287 5.187,65.957C5.572,66.628 6.429,66.859 7.099,66.474L12.211,63.522C12.354,63.44 12.477,63.337 12.579,63.218L22.506,52.479C23.155,51.778 23.939,51.14 24.907,51.172L26.992,51.243C27.725,52.915 28.634,54.493 29.697,55.952L23.956,59.265C23.285,59.651 23.054,60.507 23.44,61.177C23.825,61.848 24.681,62.079 25.351,61.693L36.047,55.519C37.673,54.58 39.197,57.28 37.602,58.2L31.974,61.449C31.802,61.548 31.658,61.679 31.547,61.829L26.416,68.762C24.971,70.715 22.907,71.758 20.479,71.759L17.564,71.759C17.294,71.759 17.042,71.837 16.827,71.969L11.917,74.803C11.246,75.188 11.015,76.045 11.4,76.715C11.786,77.386 12.642,77.617 13.312,77.231L17.939,74.561L20.48,74.559C23.807,74.559 26.692,73.105 28.67,70.432L33.63,63.727L36.273,62.201C40.364,64.877 45.076,66.272 49.962,66.274C50.702,66.274 51.354,65.677 51.362,64.909L51.366,58.424C53.979,57.774 55.767,55.435 55.767,52.768C55.758,50.08 53.92,47.793 51.373,47.163L51.376,42.613L57.16,42.616C57.966,42.616 58.56,41.966 58.56,41.192C58.57,39.541 59.935,38.223 61.561,38.223C63.209,38.227 64.559,39.569 64.56,41.222C64.56,41.995 65.187,42.622 65.961,42.622L73.642,42.625C74.435,42.626 75.048,41.974 75.048,41.211C75.048,38.711 74.681,36.294 73.997,34.012L75.005,34.046C76.883,34.111 78.331,33.156 79.55,31.838L89.37,21.217L94.299,18.371C94.97,17.986 95.2,17.13 94.815,16.46C94.43,15.789 93.573,15.558 92.903,15.943L87.791,18.895C87.648,18.977 87.525,19.08 87.423,19.199L77.496,29.937C76.846,30.639 76.063,31.277 75.094,31.244L72.956,31.172C72.227,29.506 71.323,27.936 70.27,26.486L76.047,23.152C76.718,22.766 76.949,21.91 76.563,21.24C76.178,20.569 75.322,20.338 74.652,20.723L74.648,20.725ZM67.818,27.902C70.401,31.356 71.926,35.466 72.192,39.826L67.19,39.823C66.555,37.27 64.257,35.427 61.56,35.423C58.904,35.423 56.571,37.215 55.927,39.816L51.376,39.814L51.378,34.032C51.378,33.235 50.733,32.631 49.966,32.631C48.307,32.629 46.99,31.284 46.99,29.639C46.99,27.994 48.318,26.633 49.984,26.633C50.759,26.633 51.386,26.005 51.386,25.231L51.388,19.003C54.774,19.214 58.021,20.185 60.932,21.832C59.241,22.844 58.717,24.474 58.963,26.024C59.419,28.891 62.453,31 65.347,29.33L67.817,27.904L67.818,27.902ZM39.106,21.78C42.002,20.159 45.226,19.205 48.587,19L48.584,24.001C45.842,24.683 44.336,26.911 44.177,29.638C43.96,32.159 46.187,34.671 48.576,35.262L48.574,39.812L42.789,39.809C41.948,39.809 41.399,40.473 41.389,41.26C41.365,42.892 40.028,44.202 38.392,44.202C36.743,44.2 35.389,42.858 35.388,41.203C35.388,40.429 34.761,39.802 33.988,39.802L27.758,39.799C28.031,35.421 29.576,31.287 32.181,27.83L34.776,29.328C36.524,30.337 38.221,29.98 39.454,28.981C41.618,27.227 42.113,23.518 39.106,21.78ZM32.14,54.543C29.554,51.089 28.023,46.966 27.756,42.602L32.758,42.604C33.404,45.202 35.762,47.02 38.435,47.009C41.114,46.991 43.392,45.151 44.021,42.612L48.572,42.614L48.57,48.397C48.57,49.199 49.218,49.796 49.99,49.797C51.632,49.803 52.958,51.143 52.963,52.78C52.963,54.418 51.63,55.796 49.964,55.797C49.19,55.797 48.563,56.424 48.563,57.197L48.56,63.431C45.193,63.219 41.938,62.247 39.035,60.608C40.752,59.598 41.283,57.957 41.035,56.399C40.578,53.533 37.545,51.423 34.651,53.093L32.14,54.543ZM79.554,59.398C80.345,57.39 80.84,55.229 80.986,52.97L74.756,52.967C73.983,52.967 73.355,52.34 73.355,51.567C73.355,49.912 72.001,48.57 70.351,48.568C68.722,48.568 67.383,49.871 67.355,51.503C67.341,52.293 66.806,52.962 65.953,52.962L61.181,52.958L61.181,56.303C66.581,57.408 68.656,64.133 64.711,68.076C63.763,69.023 62.545,69.7 61.181,69.979L61.181,72.838C62.25,72.769 63.295,72.621 64.31,72.4C65.638,72.11 66.913,71.701 68.122,71.183L68.972,69.259L68.972,63.053C68.972,57.488 77.687,57.466 77.687,63.056C78.466,61.835 78.98,60.708 79.553,59.399L79.554,59.398Z"/>
    </g>
</svg>
