<?xml version="1.0" encoding="UTF-8" standalone="no"?>
<!DOCTYPE svg PUBLIC "-//W3C//DTD SVG 1.1//EN" "http://www.w3.org/Graphics/SVG/1.1/DTD/svg11.dtd">
<svg width="100%" height="100%" viewBox="0 0 100 125" version="1.1" xmlns="http://www.w3.org/2000/svg" xmlns:xlink="http://www.w3.org/1999/xlink" xml:space="preserve" xmlns:serif="http://www.serif.com/" style="fill-rule:evenodd;clip-rule:evenodd;stroke-linejoin:round;stroke-miterlimit:2;">
    <g>
        <g>
            <path d="M31.844,60.44C28.163,55.228 26,48.867 26,42C26,24.327 40.327,10 58,10C75.673,10 90,24.327 90,42C90,59.673 75.673,74 58,74C51.531,74 45.51,72.08 40.476,68.779L20.72,88.535C18.381,90.874 14.602,90.886 12.243,88.527C9.899,86.184 9.9,82.385 12.234,80.05L31.844,60.44ZM58,66C71.255,66 82,55.255 82,42C82,28.745 71.255,18 58,18C44.745,18 34,28.745 34,42C34,55.255 44.745,66 58,66Z"/>
        </g>
    </g>
</svg>
