<?xml version="1.0" encoding="UTF-8" standalone="no"?>
<!DOCTYPE svg PUBLIC "-//W3C//DTD SVG 1.1//EN" "http://www.w3.org/Graphics/SVG/1.1/DTD/svg11.dtd">
<svg width="100%" height="100%" viewBox="0 0 66 66" version="1.1" xmlns="http://www.w3.org/2000/svg" xmlns:xlink="http://www.w3.org/1999/xlink" xml:space="preserve" xmlns:serif="http://www.serif.com/" style="fill-rule:evenodd;clip-rule:evenodd;stroke-linejoin:round;stroke-miterlimit:2;">
    <g transform="matrix(1,0,0,1,-1,-1)">
        <g>
            <g>
                <path d="M34,17.4C16.1,17.4 1.9,32.7 1.3,33.3C0.9,33.7 0.9,34.3 1.3,34.7C1.9,35.3 16.1,50.6 34,50.6C51.9,50.6 66.1,35.3 66.7,34.7C67.1,34.3 67.1,33.7 66.7,33.3C66.1,32.7 51.9,17.4 34,17.4ZM34,48.6C26,48.6 19.4,42.1 19.4,34C19.4,26 25.9,19.4 34,19.4C42,19.4 48.6,25.9 48.6,34C48.6,42 42,48.6 34,48.6ZM23.4,21.2C19.7,24.2 17.4,28.8 17.4,34C17.4,39.1 19.7,43.7 23.4,46.8C13.4,43.4 5.6,36.2 3.4,34C5.6,31.8 13.4,24.6 23.4,21.2ZM44.6,46.8C48.3,43.8 50.6,39.2 50.6,34C50.6,28.9 48.3,24.3 44.6,21.2C54.7,24.6 62.4,31.7 64.6,34C62.4,36.2 54.6,43.4 44.6,46.8Z" style="fill:rgb(1,1,1);fill-rule:nonzero;"/>
            </g>
            <g>
                <path d="M34,24.7C28.9,24.7 24.7,28.9 24.7,34C24.7,39.1 28.9,43.3 34,43.3C39.1,43.3 43.3,39.1 43.3,34C43.3,28.9 39.1,24.7 34,24.7ZM34,41.3C30,41.3 26.7,38 26.7,34C26.7,30 30,26.7 34,26.7C38,26.7 41.3,30 41.3,34C41.3,38 38,41.3 34,41.3Z" style="fill:rgb(1,1,1);fill-rule:nonzero;"/>
            </g>
            <g>
                <path d="M21.9,65L3,65L3,45.7C3,45.1 2.6,44.7 2,44.7C1.4,44.7 1,45.1 1,45.7L1,66C1,66.6 1.4,67 2,67L21.9,67C22.5,67 22.9,66.6 22.9,66C22.9,65.4 22.5,65 21.9,65Z" style="fill:rgb(1,1,1);fill-rule:nonzero;"/>
            </g>
            <g>
                <path d="M66,44.9C65.4,44.9 65,45.3 65,45.9L65,65L46,65C45.4,65 45,65.4 45,66C45,66.6 45.4,67 46,67L66,67C66.6,67 67,66.6 67,66L67,45.9C67,45.3 66.6,44.9 66,44.9Z" style="fill:rgb(1,1,1);fill-rule:nonzero;"/>
            </g>
            <g>
                <path d="M66,1L45.9,1C45.3,1 44.9,1.4 44.9,2C44.9,2.6 45.3,3 45.9,3L65,3L65,21.9C65,22.5 65.4,22.9 66,22.9C66.6,22.9 67,22.5 67,21.9L67,2C67,1.4 66.6,1 66,1Z" style="fill:rgb(1,1,1);fill-rule:nonzero;"/>
            </g>
            <g>
                <path d="M2,23.3C2.6,23.3 3,22.9 3,22.3L3,3L22,3C22.6,3 23,2.6 23,2C23,1.4 22.6,1 22,1L2,1C1.4,1 1,1.4 1,2L1,22.3C1,22.9 1.4,23.3 2,23.3Z" style="fill:rgb(1,1,1);fill-rule:nonzero;"/>
            </g>
        </g>
    </g>
</svg>
