<?xml version="1.0" encoding="UTF-8" standalone="no"?>
<!DOCTYPE svg PUBLIC "-//W3C//DTD SVG 1.1//EN" "http://www.w3.org/Graphics/SVG/1.1/DTD/svg11.dtd">
<svg width="100%" height="100%" viewBox="0 0 81 81" version="1.1" xmlns="http://www.w3.org/2000/svg" xmlns:xlink="http://www.w3.org/1999/xlink" xml:space="preserve" xmlns:serif="http://www.serif.com/" style="fill-rule:evenodd;clip-rule:evenodd;stroke-linejoin:round;stroke-miterlimit:2;">
    <g transform="matrix(1,0,0,1,-9.96996,-9.97)">
        <path d="M14.63,32.86C17.168,32.855 19.255,30.768 19.26,28.23L19.26,19.23L28.26,19.23C30.8,19.23 32.89,17.14 32.89,14.6C32.89,12.06 30.8,9.97 28.26,9.97L14.63,9.97C12.088,9.975 10,12.068 10,14.61C10,14.617 10,14.623 10,14.63L10,28.23C10.005,30.768 12.092,32.855 14.63,32.86Z" style="fill-rule:nonzero;"/>
        <path d="M85.37,67.14C82.832,67.145 80.745,69.232 80.74,71.77L80.74,80.77L71.74,80.77C69.2,80.77 67.11,82.86 67.11,85.4C67.11,87.94 69.2,90.03 71.74,90.03L85.34,90.03C85.347,90.03 85.353,90.03 85.36,90.03C87.905,90.03 90,87.935 90,85.39C90,85.383 90,85.377 90,85.37L90,71.77C89.995,69.232 87.908,67.145 85.37,67.14Z" style="fill-rule:nonzero;"/>
        <path d="M85.37,10L71.77,10C69.23,10 67.14,12.09 67.14,14.63C67.14,17.17 69.23,19.26 71.77,19.26L80.77,19.26L80.77,28.26C80.77,30.8 82.86,32.89 85.4,32.89C87.94,32.89 90.03,30.8 90.03,28.26L90.03,14.63C90.025,12.088 87.932,10 85.39,10C85.383,10 85.377,10 85.37,10Z" style="fill-rule:nonzero;"/>
        <path d="M28.23,80.74L19.23,80.74L19.23,71.74C19.23,69.2 17.14,67.11 14.6,67.11C12.06,67.11 9.97,69.2 9.97,71.74L9.97,85.34C9.97,85.347 9.97,85.353 9.97,85.36C9.97,87.905 12.065,90 14.61,90C14.617,90 14.623,90 14.63,90L28.23,90C30.77,90 32.86,87.91 32.86,85.37C32.86,82.83 30.77,80.74 28.23,80.74Z" style="fill-rule:nonzero;"/>
        <path d="M70.61,75.48C70.622,75.48 70.634,75.48 70.646,75.48C73.208,75.48 75.316,73.372 75.316,70.81C75.316,69.558 74.813,68.358 73.92,67.48L64.27,57.83C63.363,56.919 62.115,56.426 60.83,56.47L57.51,53.15C59.693,50.097 60.867,46.436 60.867,42.683C60.867,32.808 52.741,24.683 42.867,24.683C32.992,24.683 24.867,32.808 24.867,42.683C24.867,52.557 32.992,60.683 42.867,60.683C46.444,60.683 49.941,59.616 52.91,57.62L56.3,61C56.26,62.282 56.752,63.524 57.66,64.43L67.31,74.09C68.181,74.974 69.369,75.475 70.61,75.48ZM50.41,50.22C48.396,52.237 45.66,53.371 42.81,53.371C39.96,53.371 37.224,52.237 35.21,50.22C33.188,48.202 32.05,45.46 32.05,42.603C32.05,36.7 36.907,31.843 42.81,31.843C48.713,31.843 53.57,36.7 53.57,42.603C53.57,45.46 52.432,48.202 50.41,50.22Z" style="fill-rule:nonzero;"/>
    </g>
</svg>
