<?xml version="1.0" standalone="no"?>
<!DOCTYPE svg PUBLIC "-//W3C//DTD SVG 20010904//EN"
 "http://www.w3.org/TR/2001/REC-SVG-20010904/DTD/svg10.dtd">
<svg version="1.0" xmlns="http://www.w3.org/2000/svg"
 width="700.000000pt" height="700.000000pt" viewBox="0 0 700.000000 700.000000"
 preserveAspectRatio="xMidYMid meet">
<metadata>
Created by potrace 1.14, written by Peter Selinger 2001-2017
</metadata>
<g transform="translate(0.000000,700.000000) scale(0.100000,-0.100000)"
fill="#000000" stroke="none">
<path d="M0 3500 l0 -3500 3495 0 3495 0 0 3500 0 3500 -3495 0 -3495 0 0
-3500z m3140 2541 c405 -38 682 -107 930 -231 375 -187 632 -510 707 -889 23
-114 23 -357 0 -458 -68 -300 -239 -550 -487 -713 -117 -77 -187 -112 -313
-160 l-99 -37 94 -23 c307 -75 562 -204 723 -365 225 -224 337 -495 338 -815
0 -148 -14 -240 -58 -376 -115 -351 -362 -636 -695 -803 -233 -117 -476 -173
-910 -212 -81 -7 -615 -13 -1527 -16 l-1403 -5 0 70 0 69 158 6 c226 8 336 44
434 139 56 54 89 120 114 228 17 70 18 195 21 1990 4 2061 4 2039 -47 2204
-18 58 -32 79 -78 126 -104 103 -210 138 -444 147 l-158 6 0 69 0 70 1288 -5
c870 -3 1328 -8 1412 -16z"/>
<path d="M2320 5793 c-156 -15 -318 -42 -388 -64 l-32 -11 2 -981 3 -982 40
-7 c206 -36 598 -53 870 -38 450 25 690 101 892 284 292 264 388 769 214 1133
-182 379 -546 606 -1063 662 -89 10 -454 13 -538 4z"/>
<path d="M2061 3430 c-51 -4 -108 -11 -127 -15 l-34 -6 0 -1048 0 -1048 103
-22 c487 -102 1003 -104 1350 -5 397 113 690 395 779 749 32 128 32 360 0 490
-48 190 -136 354 -261 487 -162 171 -386 292 -671 361 -215 53 -289 59 -680
62 -201 2 -407 -1 -459 -5z"/>
</g>
</svg>
